# xmcd
#
# Track frame offsets: 
#        150
#        26592
#        54308
#        92776
#        126471
#        146779
#        178291
#        186441
#        205631
#
# Disc length: 3228 seconds
#
# Revision: 1
# Processed by: cddbd v1.5.2PL0 Copyright (c) Steve Scherf et al.
# Submitted via: ExactAudioCopyFreeDBPlugin 1.0
#
DISCID=870c9a09
DTITLE=Iain Ballamy - Anorak - More Jazz
DYEAR=2007
DGENRE=Jazz
TTITLE0=My Way
TTITLE1=Of All The Things
TTITLE2=Tribute to Alan Skidmore's Tribute to John Coltrane
TTITLE3=Convolution (for Dudley Moore)
TTITLE4=Recedar
TTITLE5=I Got Rid of Them
TTITLE6=St. Ella
TTITLE7=The Worm
TTITLE8=St. Ella (Reprise)
EXTD=YEAR: 2007
EXTT0=
EXTT1=
EXTT2=
EXTT3=
EXTT4=
EXTT5=
EXTT6=
EXTT7=
EXTT8=
PLAYORDER=
